<?xml version="1.0" encoding="UTF-8"?>
<svg width="48px" height="46px" viewBox="0 0 48 46" version="1.1" xmlns="http://www.w3.org/2000/svg" xmlns:xlink="http://www.w3.org/1999/xlink">
    <title>编组</title>
    <defs>
        <polygon id="path-1" points="0 0 48 0 48 46 0 46"></polygon>
    </defs>
    <g id="设计稿" stroke="none" stroke-width="1" fill="none" fill-rule="evenodd">
        <g id="F_首页_" transform="translate(-240.000000, -1646.000000)">
            <g id="编组" transform="translate(240.000000, 1646.000000)">
                <mask id="mask-2" fill="white">
                    <use xlink:href="#path-1"></use>
                </mask>
                <g id="Clip-2"></g>
                <path d="M45.1246695,4.49648992 C45.0164334,6.2780469 44.9164359,8.05988966 44.8110407,9.84144663 C44.7295086,11.22634 44.6439993,12.6106618 44.5610467,13.9952693 C44.4175843,16.3952558 44.2735537,18.7949564 44.1315117,21.1952287 C44.0315141,22.8844785 43.9360618,24.5740141 43.8357802,26.2632639 C43.6954426,28.6263846 43.551412,30.9892195 43.4107904,33.3523403 C43.3110769,35.0230143 43.2153406,36.6939742 43.1164794,38.364934 C43.027277,39.8695695 42.9329611,41.3739192 42.8494404,42.8788404 C42.8403497,43.0434501 42.7823965,43.0757433 42.6335365,43.0654552 C41.9233264,43.0157294 41.2131163,42.9697187 40.502338,42.9337103 C40.3156948,42.9242796 40.282741,42.8445467 40.2918317,42.6756503 C40.4352942,40.00703 40.5739272,37.3378381 40.7122761,34.668932 C40.7923878,33.1171428 40.8727836,31.565925 40.9455091,30.01385 C40.9753379,29.3842751 40.6523344,29.0484827 40.0245086,29.0204762 C39.701221,29.0061872 39.3785015,28.9738939 39.055498,28.967321 C38.5651689,28.9573187 38.2069389,29.2891101 38.1813714,29.779224 C38.0839305,31.6448005 37.9933077,33.5106628 37.8978555,35.3765251 C37.7762675,37.7496481 37.6498501,40.123057 37.5336597,42.4970374 C37.5240009,42.6910825 37.4688886,42.7499533 37.2757114,42.7296629 C36.9538442,42.695655 36.6308406,42.6756503 36.3072689,42.6693632 C36.1015921,42.6653622 35.989947,42.6179226 36.0490365,42.3818678 C36.0731837,42.2849881 36.0623885,42.1792492 36.067502,42.0777971 L36.0615362,42.0775113 C36.2064191,39.5757869 36.3524383,37.0737768 36.4956166,34.5720524 C36.5958983,32.8179303 36.6907824,31.0635225 36.7904959,29.3091147 C36.9311175,26.8348253 37.074864,24.3608216 37.2160538,21.886818 C37.3146309,20.1601309 37.4151967,18.4337296 37.5061036,16.7070425 C37.5362165,16.1334806 37.2009973,15.7859713 36.6274316,15.7559643 C36.2950533,15.7385317 35.9632431,15.7090963 35.6308648,15.7010944 C35.1234907,15.6882343 34.7675334,16.0205973 34.7394091,16.5244287 C34.6050373,18.9066967 34.4746428,21.2889647 34.3385665,23.670947 C34.1448212,27.0588774 33.944826,30.4470935 33.7516489,33.8350239 C33.6118795,36.2910234 33.4786441,38.7473086 33.3422838,41.2030223 C33.3238183,41.5353853 33.2931372,41.868034 33.2900123,42.200397 C33.2883078,42.4010151 33.2340477,42.4724602 33.0189961,42.4567423 C32.0232815,42.384154 31.0267147,42.3287125 30.0301479,42.2652692 C28.702055,42.1806781 27.3739621,42.0932292 26.0455851,42.0089239 C24.4774412,41.909758 22.9092973,41.8085916 21.3405852,41.7188565 C21.0914435,41.7045675 21.0292291,41.6228342 21.04599,41.3719187 C21.1442831,39.9144371 21.2235425,38.4552407 21.3076314,36.996616 C21.4510939,34.5040366 21.5942722,32.0111714 21.7365983,29.5188778 C21.8351755,27.7921907 21.9306277,26.0655036 22.0292049,24.3391023 C22.1712469,21.8462371 22.3155616,19.3536577 22.4576036,16.8610783 C22.556749,15.1252463 22.6522012,13.3894142 22.7513465,11.6535821 C22.8928204,9.17014773 23.0362828,6.68671332 23.178893,4.20356469 C23.2007675,3.82461946 23.2283236,3.44653157 23.2405393,3.06758634 C23.2453687,2.91697991 23.2965038,2.88954496 23.4411026,2.90126197 C23.9479085,2.94241439 24.4555667,2.97385027 24.963509,2.99156867 C25.156402,2.99842741 25.2140711,3.06072761 25.1995828,3.25448693 C25.1109486,4.45333703 25.0342459,5.65275869 24.9510093,6.85189457 C24.8484549,8.32766619 24.7433438,9.8034378 24.6396532,11.2789236 C24.4973271,13.3085383 24.3544328,15.3381529 24.2129589,17.3674818 C24.1140977,18.7880977 24.0177932,20.2084279 23.919216,21.6290438 C23.8331386,22.8650454 23.7538791,24.1019043 23.6558701,25.3367628 C23.5902467,26.1655269 23.8692172,26.4921742 24.7098219,26.5261821 C24.9868039,26.5373276 25.2629336,26.5696208 25.5401996,26.5744791 C26.0299605,26.5827667 26.3790998,26.2518326 26.4129058,25.760004 C26.6018217,23.0202243 26.7893171,20.2804446 26.9788012,17.5412364 C27.2009549,14.3310617 27.4236768,11.1211727 27.6478191,7.91128368 C27.752078,6.4172221 27.8631548,4.92316053 27.9614479,3.42881317 C27.9733794,3.25162912 28.0148557,3.18275597 28.2009307,3.20447531 C28.4671175,3.23505384 28.7355769,3.25420115 29.0031841,3.25620162 C29.1693732,3.25763052 29.2014747,3.32278852 29.1909636,3.47225184 C29.1426693,4.15498196 29.1046021,4.83799787 29.0600009,5.52101378 C28.9753438,6.81245683 28.887846,8.10418567 28.8031889,9.39620028 C28.6591583,11.6009985 28.5216616,13.8069398 28.3702448,16.0114523 C28.3131439,16.8465035 28.5855805,17.1668637 29.4264693,17.2005858 C29.7034512,17.2117313 29.9795809,17.2443103 30.256847,17.2491685 C30.7460397,17.2574562 31.0968835,16.9256648 31.1284168,16.4338362 C31.2809699,14.0624278 31.4301141,11.6907336 31.5835194,9.31932527 C31.7059597,7.42774271 31.8343657,5.53644594 31.9551014,3.64486339 C31.9644761,3.49625742 31.990896,3.44395955 32.1610623,3.45510499 C34.6973646,3.62142937 37.2345192,3.7780372 39.7711057,3.93836018 C41.4869733,4.04667107 43.2022727,4.15984024 44.9184245,4.26357864 C45.0908635,4.27386674 45.1348965,4.32987976 45.1249536,4.49648992 L45.1246695,4.49648992 Z M19.0818329,27.2403481 C19.0412089,27.2674973 19.0974576,27.3789518 18.9889375,27.3466586 C18.3170787,25.5090886 17.6457881,23.6715186 16.972793,21.8339486 C16.7378555,21.1923709 16.3321835,21.0086139 15.6895854,21.2489554 C15.4219782,21.3495502 15.154087,21.4504308 14.8881843,21.5555981 C14.3279706,21.777364 14.1424637,22.1857446 14.3515495,22.7527336 C15.3484004,25.4542187 16.347524,28.1548464 17.3457954,30.85576 C17.7395358,31.9208647 18.1207766,32.9905419 18.534403,34.047359 C18.6883765,34.4400217 18.6500252,34.8278261 18.6287189,35.2210604 C18.5451982,36.7628473 18.4474733,38.3043485 18.3719069,39.8464213 C18.3602595,40.0844766 18.2957724,40.2027898 18.0633916,40.2822368 C17.0503479,40.6277457 16.0415655,40.9855432 15.0373284,41.355915 C14.8393218,41.4285033 14.7648918,41.4139285 14.6862005,41.2024507 C10.9587338,31.1758344 7.22586947,21.1515042 3.4864712,11.1294603 C3.40664358,10.9159821 3.44811985,10.8519672 3.65635346,10.7965258 C3.99469755,10.7062191 4.32821222,10.5936215 4.65462479,10.4673064 C4.85291545,10.3904314 4.93473165,10.4255824 5.01029801,10.633345 C5.68073635,12.4712008 6.36452665,14.3044841 7.04263526,16.1400536 C8.82100137,20.953744 10.5985152,25.7677201 12.3768813,30.5811247 C12.6268753,31.258425 13.0197635,31.4338943 13.6998607,31.1755486 C13.9413322,31.0840987 14.1830877,30.9923631 14.423991,30.8994844 C15.0401693,30.6617149 15.2222671,30.2696237 14.9949999,29.6529089 C13.9285484,26.7608081 12.8598242,23.8692788 11.7922364,20.9774638 C10.4113038,17.2371658 9.03150765,13.4962962 7.64631385,9.7574271 C7.5812586,9.58195774 7.56904299,9.49936712 7.78466278,9.4284935 C11.8785979,8.08532414 15.9694082,6.73272401 20.0613547,5.38469638 C20.1372052,5.35983346 20.2113511,5.30639247 20.3266892,5.34411552 L19.0818329,27.2403481 Z M47.9194883,1.97561823 C47.8456264,1.79614794 47.7444925,1.66240257 47.5203502,1.64839931 C45.2044971,1.50493739 42.8894962,1.35547408 40.5739272,1.20829701 C39.0242487,1.10970266 37.4745703,1.01339456 35.9248918,0.914800217 C33.7110248,0.773624543 31.4971579,0.630734186 29.283575,0.48841539 C27.9554821,0.402966956 26.6271051,0.316089618 25.2987282,0.230926965 C24.0535878,0.151194146 22.8090156,0.0568865099 21.5627389,0.00115927043 C21.0388879,-0.0225605289 20.5417408,0.318947426 20.576115,0.912513971 C20.5968531,1.27031143 20.5315138,1.63239559 20.5278207,1.99247929 C20.5258321,2.21853184 20.4465727,2.32455648 20.2227145,2.39828791 C13.6328169,4.57050712 7.04576018,6.75101398 0.45841938,8.93009193 C0.0717809967,9.05812169 -0.0381595282,9.2224456 0.0109870113,9.63082625 C0.0263275497,9.75771288 0.0666674839,9.88317062 0.105302914,10.0057705 C0.276889676,10.5513259 0.503588743,11.0765909 0.703299826,11.6115724 C4.43730049,21.6173268 8.16135822,31.6265105 11.8874045,41.634837 C12.2061468,42.4913218 12.5200597,43.3495213 12.8461882,44.2028625 C13.028002,44.6786874 13.2939046,44.9887594 13.9328097,44.7255554 C14.0095123,44.693548 14.0882036,44.6669704 14.1660427,44.6389638 C15.4236827,44.1845725 16.682175,43.7324674 17.9383947,43.2732178 C18.1006067,43.2137754 18.1633892,43.2114892 18.1585598,43.4183944 C18.1429352,44.0916938 18.4202012,44.3700442 19.0991621,44.3949071 C19.7178971,44.4177696 20.3374844,44.4286292 20.9550831,44.4677812 C23.3996263,44.6215312 25.8433173,44.7867125 28.2878605,44.9433203 C30.4647965,45.0830671 32.6423007,45.2133831 34.8192367,45.3531299 C38.1214296,45.5651791 41.4233385,45.7823725 44.7252473,45.9961365 C45.113022,46.0212852 45.255064,45.9286922 45.4013673,45.5694659 C45.4681271,45.4048562 45.4959673,45.2345309 45.5033535,45.0567752 C45.5425571,44.1514219 45.579488,43.2460686 45.6314754,42.3415727 C45.7698243,39.9504454 45.9161276,37.559604 46.0581696,35.1690483 C46.1567468,33.5075192 46.2527672,31.8454186 46.3513444,30.1841753 C46.4931023,27.7933338 46.637417,25.4024924 46.7791749,23.0116509 C46.8780362,21.3501218 46.9737725,19.688307 47.0720656,18.0267779 C47.2141076,15.6359364 47.357286,13.2450949 47.5007484,10.8545393 C47.5856895,9.44221097 47.6731874,8.02988268 47.7578445,6.61784017 C47.8376721,5.28867406 47.915227,3.95979374 47.9939183,2.63119919 C48.0069862,2.40829023 48.0058498,2.18623862 47.9194883,1.97561823 L47.9194883,1.97561823 Z" id="Fill-1" fill="#271E19" mask="url(#mask-2)"></path>
            </g>
        </g>
    </g>
</svg>